<svg width="23" height="27" viewBox="0 0 23 27" fill="none" xmlns="http://www.w3.org/2000/svg">
<path id="Vector" d="M21.411 16.436C22.0606 17.37 22.353 18.5553 22.2245 19.7318C22.096 20.9082 21.5569 21.9792 20.7256 22.709L17.5544 25.4922C16.723 26.2217 15.6678 26.5503 14.6207 26.4058C13.5737 26.2613 12.6206 25.6554 11.9711 24.7215L1.78057 10.0683C1.131 9.13435 0.838241 7.94866 0.96678 6.77223C1.09532 5.59581 1.63464 4.52506 2.46599 3.79532L5.63689 1.01216C6.46827 0.282629 7.5235 -0.0459483 8.57057 0.0985487C9.61763 0.243046 10.5709 0.848908 11.2204 1.7828L21.411 16.436Z" fill="#1F1F1F"/>
</svg>
