<svg width="91" height="114" viewBox="0 0 91 114" fill="none" xmlns="http://www.w3.org/2000/svg">
<path id="Vector" d="M89.9785 104.567C90.2497 104.91 90.458 105.31 90.5917 105.743C90.7253 106.177 90.7814 106.636 90.7572 107.094C90.733 107.552 90.6288 108 90.4505 108.412C90.2721 108.825 90.0232 109.194 89.7179 109.499L86.7772 112.431C86.4719 112.736 86.1162 112.97 85.7304 113.12C85.3446 113.27 84.9363 113.333 84.5287 113.306C84.1211 113.279 83.7222 113.162 83.3549 112.961C82.9876 112.761 82.659 112.481 82.3879 112.138L0.90852 9.03871C0.637402 8.69569 0.429014 8.29583 0.295383 7.86236C0.161753 7.4289 0.105409 6.97025 0.129611 6.51233C0.153812 6.05441 0.257969 5.6063 0.436318 5.19364C0.614668 4.78099 0.863836 4.41184 1.16918 4.10728L4.10956 1.17457C4.41489 0.869993 4.77082 0.636198 5.15666 0.486074C5.5425 0.33595 5.95077 0.272652 6.35837 0.299841C6.76598 0.32703 7.16486 0.444042 7.53218 0.644404C7.8995 0.844767 8.22809 1.12438 8.49919 1.46741L89.9785 104.567Z" fill="#1F1F1F"/>
</svg>
