<svg width="21" height="26" viewBox="0 0 21 26" fill="none" xmlns="http://www.w3.org/2000/svg">
<path id="Vector" d="M19.6034 13.5122C20.5117 14.7544 20.9436 16.3511 20.804 17.951C20.6644 19.5509 19.9648 21.0231 18.8591 22.0435L16.951 23.8036C15.8453 24.824 14.4239 25.3092 12.9998 25.1524C11.5757 24.9956 10.2653 24.2096 9.35698 22.9674L1.40518 12.0913C0.496891 10.8491 0.0649835 9.25261 0.204584 7.65271C0.344184 6.0528 1.04377 4.58069 2.14949 3.56027L4.05755 1.79983C5.16328 0.779434 6.58462 0.294218 8.00875 0.451048C9.43288 0.607879 10.7433 1.39381 11.6516 2.636L19.6034 13.5122Z" fill="#1F1F1F"/>
</svg>
